<?xml version="1.0" encoding="UTF-8"?>
<!DOCTYPE svg PUBLIC "-//W3C//DTD SVG 1.1//EN" "http://www.w3.org/Graphics/SVG/1.1/DTD/svg11.dtd">
<!-- Creator: CorelDRAW Home & Student X7 -->
<svg xmlns="http://www.w3.org/2000/svg" xml:space="preserve" width="190px" height="190px" version="1.1" style="shape-rendering:geometricPrecision; text-rendering:geometricPrecision; image-rendering:optimizeQuality; fill-rule:evenodd; clip-rule:evenodd"
viewBox="0 0 190 190"
 xmlns:xlink="http://www.w3.org/1999/xlink">
 <defs>
  <style type="text/css">
   <![CDATA[
    .fil0 {fill:white}
   ]]>
  </style>
 </defs>
 <g id="Ebene_x0020_1">
  <metadata id="CorelCorpID_0Corel-Layer"/>
  <g id="_3e91140ac1bfb9903b91c1b0ca092167">
   <g>
   </g>
   <path class="fil0" d="M136 92c-1,-34 -18,-62 -37,-80 -5,-5 -6,-11 -6,-11 0,0 0,2 -3,5 -13,14 -21,21 -29,37 -9,21 -10,49 -10,49 0,0 1,23 10,41 8,15 21,26 26,31 1,-2 1,-5 2,-9 1,-5 1,-10 1,-10 1,-2 2,-3 3,-3 0,0 0,0 0,0 1,0 2,1 2,3 0,0 1,8 3,13 1,3 3,3 3,3 0,1 1,1 1,2 0,0 0,0 0,0 5,-4 35,-30 34,-71zm-50 47c-1,1 -2,3 -2,4 0,0 0,2 0,5 -5,-5 -10,-12 -14,-19 -8,-16 -9,-36 -9,-38 0,-2 1,-27 9,-45 5,-10 9,-16 16,-23l0 116zm14 25c0,0 -2,2 -2,5 -1,7 -1,20 -1,20l-5 -2c0,0 0,-8 -1,-14 -1,-4 -2,-7 -2,-7 0,0 2,-5 2,-10 1,-5 2,-11 2,-11 0,0 1,8 3,14 1,3 4,5 4,5z" display="inline"/>
  </g>
 </g>
</svg>
