<?xml version="1.0" encoding="UTF-8"?>
<!DOCTYPE svg PUBLIC "-//W3C//DTD SVG 1.1//EN" "http://www.w3.org/Graphics/SVG/1.1/DTD/svg11.dtd">
<!-- Creator: CorelDRAW Home & Student X7 -->
<svg xmlns="http://www.w3.org/2000/svg" xml:space="preserve" width="190px" height="190px" version="1.1" style="shape-rendering:geometricPrecision; text-rendering:geometricPrecision; image-rendering:optimizeQuality; fill-rule:evenodd; clip-rule:evenodd"
viewBox="0 0 190 190"
 xmlns:xlink="http://www.w3.org/1999/xlink">
 <defs>
  <style type="text/css">
   <![CDATA[
    .fil0 {fill:white}
   ]]>
  </style>
 </defs>
 <g id="Ebene_x0020_1">
  <metadata id="CorelCorpID_0Corel-Layer"/>
  <path class="fil0" d="M104 41c5,0 4,0 3,5l-3 -5zm4 46c-9,-1 -10,-13 -9,-21 2,-7 3,-4 0,-10 -2,-4 -3,-6 -4,-10 -3,-6 -12,-15 -6,-19 3,-2 7,0 11,2 17,9 25,-1 46,43 2,6 1,5 6,8 7,3 14,6 18,13l-12 3 14 13c-8,-3 -17,-8 -19,-16l12 -2c-2,-3 -6,-5 -10,-7 -6,-3 -7,-1 -11,-7 -7,-13 -9,-30 -29,-39 -6,-3 -9,-2 -14,-4 -5,-3 -5,-5 -12,-4 0,0 12,24 13,26 4,8 -5,20 4,28 2,-4 0,-6 5,-12l9 17c-5,-2 -6,-5 -9,-10l-3 8zm-8 87c89,-2 104,-135 21,-158 -47,-13 -69,51 -30,72 50,26 43,52 9,86z"/>
  <path class="fil0" d="M89 144c-5,-1 -4,0 -3,-5l3 5zm-15 -48l-4 -4 4 3 8 10 3 -7c15,0 6,23 9,30 7,18 15,25 11,29 -6,3 -8,1 -13,-2 -6,-3 -9,-2 -15,-4 -23,-12 -26,-35 -32,-42 -4,-5 -15,-7 -21,-16 5,-4 6,-2 11,-5 -4,-5 -9,-6 -14,-13 8,4 17,8 20,17l-13 1c7,9 17,8 21,14 4,7 6,17 11,24 14,20 25,17 32,20 4,2 5,4 11,4 1,-5 -3,-7 -6,-12 -2,-5 -2,-8 -5,-13 -6,-9 5,-18 -4,-29l-1 3c-3,8 -1,6 -5,9l-8 -17zm17 -84c-89,1 -104,136 -21,158 45,12 70,-50 30,-72 -52,-29 -41,-51 -9,-86z"/>
  <path class="fil0" d="M181 103c-12,113 -186,93 -171,-21 14,-112 184,-92 171,21zm7 4c18,-122 -166,-149 -185,-29 -19,123 167,151 185,29z"/>
 </g>
</svg>
