<?xml version="1.0" encoding="UTF-8"?>
<!DOCTYPE svg PUBLIC "-//W3C//DTD SVG 1.1//EN" "http://www.w3.org/Graphics/SVG/1.1/DTD/svg11.dtd">
<!-- Creator: CorelDRAW Home & Student X7 -->
<svg xmlns="http://www.w3.org/2000/svg" xml:space="preserve" width="190px" height="190px" version="1.1" style="shape-rendering:geometricPrecision; text-rendering:geometricPrecision; image-rendering:optimizeQuality; fill-rule:evenodd; clip-rule:evenodd"
viewBox="0 0 190 190"
 xmlns:xlink="http://www.w3.org/1999/xlink">
 <defs>
  <style type="text/css">
   <![CDATA[
    .fil1 {fill:white}
    .fil0 {fill:white;fill-rule:nonzero}
   ]]>
  </style>
 </defs>
 <g id="Ebene_x0020_1">
  <metadata id="CorelCorpID_0Corel-Layer"/>
  <g id="_459085184">
   <g>
    <path class="fil0" d="M90 123c0,-2 1,-3 3,-3 2,0 4,1 4,3l-7 0zm9 48l-7 3 0 0 0 -1 0 -1 0 -1 -1 -1 0 -1 0 -1 0 -1 0 -1 0 -1 -1 -2 0 -1 0 -2 0 -1 0 -2 0 -1 0 -2 0 -2 0 -1 0 -2 0 -2 0 -2 0 -2 0 -2 0 -2 0 -2 0 -2 0 -2 0 -2 0 -2 0 -2 0 -2 0 -2 7 0 0 2 0 2 -1 2 0 2 0 2 0 2 0 2 0 2 0 2 0 2 0 2 1 2 0 2 0 1 0 2 0 2 0 1 0 2 0 2 0 1 0 1 0 2 0 1 1 1 0 1 0 1 0 1 0 1 0 1 0 0 1 1 0 0 0 0zm0 0c0,2 0,4 -2,5 -2,0 -4,-1 -5,-2l7 -3zm18 10l2 7 0 0 -2 0 -1 1 -2 0 -1 0 -2 0 -1 0 -1 0 -2 -1 -1 0 -1 0 -1 -1 -1 0 -1 -1 -1 0 -1 -1 -1 -1 0 0 -1 -1 -1 -1 0 0 -1 -1 0 -1 -1 -1 0 0 -1 -1 0 -1 0 0 -1 -1 0 -1 0 0 0 -1 -1 0 7 -3 0 1 0 0 0 1 1 0 0 1 0 0 0 1 1 0 0 1 0 0 1 1 0 0 0 1 1 0 0 1 1 0 0 1 1 0 0 0 1 1 1 0 0 0 1 0 1 1 1 0 1 0 0 0 1 0 2 0 1 0 1 0 1 -1 0 0zm0 0c2,0 4,1 4,3 1,2 0,4 -2,4l-2 -7zm18 -17l6 1 0 0 0 1 0 1 0 1 -1 2 0 1 0 1 -1 1 0 1 0 1 -1 0 0 1 -1 1 0 1 -1 1 -1 1 0 0 -1 1 -1 1 -1 0 0 1 -1 1 -1 0 -1 1 -1 0 -1 1 -1 0 -1 0 -1 1 -2 0 -1 1 -1 0 -1 0 -2 -7 1 0 1 0 2 0 0 -1 1 0 1 0 1 -1 1 0 1 0 0 -1 1 0 1 -1 0 0 1 0 0 -1 1 0 0 -1 1 0 0 -1 0 0 1 -1 0 -1 0 0 1 -1 0 -1 0 -1 1 0 0 -1 0 -1 0 -1 0 -1 1 -1 0 0zm0 0c0,-2 2,-3 4,-3 1,0 3,2 2,4l-6 -1zm4 -38l7 0 0 1 0 0 0 1 0 1 0 1 0 1 0 1 0 1 -1 1 0 2 0 1 0 1 0 2 0 1 -1 2 0 1 0 2 0 1 0 2 0 1 -1 2 0 1 0 1 0 2 0 1 -1 1 0 2 0 1 0 1 0 1 0 1 -1 1 -6 -1 0 -1 0 -1 0 -1 0 -1 0 -1 1 -1 0 -2 0 -1 0 -1 0 -2 1 -1 0 -2 0 -1 0 -2 0 -1 0 -2 1 -1 0 -2 0 -1 0 -1 0 -2 0 -1 1 -1 0 -2 0 -1 0 -1 0 -1 0 -1 0 -1 0 0 0 -1 0 0zm0 0c1,-2 2,-4 4,-4 2,1 3,2 3,4l-7 0z"/>
   </g>
   <g>
    <path class="fil0" d="M76 10c1,1 2,3 1,5 0,2 -2,2 -4,2l3 -7zm-66 40l-7 1 0 0 0 -6 0 -6 1 -5 1 -5 1 -4 2 -4 3 -4 2 -2 3 -3 3 -2 3 -2 3 -1 3 -2 4 0 3 -1 4 0 3 0 4 0 3 0 3 0 3 1 4 0 2 1 3 1 3 0 2 1 2 1 1 0 2 1 1 0 0 0 1 0 -3 7 0 0 -1 -1 -1 0 -1 0 -1 -1 -2 0 -2 -1 -3 -1 -2 0 -3 -1 -3 0 -3 -1 -3 0 -3 0 -3 0 -3 0 -3 0 -3 0 -3 1 -2 1 -3 1 -3 2 -2 1 -2 2 -2 3 -2 2 -1 3 -1 4 -1 4 -1 5 0 5 0 5 0 0zm0 0c0,2 -2,4 -4,4 -1,0 -3,-1 -3,-3l7 -1zm37 77l5 5 0 0 -2 2 -3 2 -3 2 -3 0 -3 0 -2 -1 -3 -2 -2 -2 -2 -2 -2 -3 -2 -3 -2 -3 -2 -3 -2 -4 -1 -4 -2 -4 -1 -4 -2 -4 -1 -5 -1 -4 -1 -4 -1 -4 -1 -4 -1 -4 -1 -4 -1 -4 0 -3 -1 -3 0 -3 -1 -2 0 -2 0 -2 7 -1 0 2 0 2 0 2 1 3 0 3 1 3 1 3 0 4 1 4 1 4 1 4 2 4 1 4 1 5 1 4 2 4 1 3 2 4 1 4 2 3 2 3 1 2 2 3 2 1 1 2 2 1 1 0 1 0 1 0 2 -1 1 -1 2 -2 0 0zm0 0c1,-1 4,-1 5,0 1,1 2,3 0,5l-5 -5zm16 -18l5 5 0 0 0 0 0 0 0 0 0 0 0 0 -1 1 0 0 0 0 -1 1 0 0 0 1 -1 0 0 1 -1 0 0 1 -1 0 -1 1 0 1 -1 0 0 1 -1 1 -1 1 -1 0 0 1 -1 1 -1 1 0 1 -1 1 -1 1 -1 1 -1 1 -5 -5 1 -1 1 -1 1 -1 0 -1 1 0 1 -1 1 -1 0 -1 1 -1 1 -1 0 0 1 -1 1 -1 0 -1 1 0 1 -1 0 0 1 -1 0 -1 1 0 0 -1 0 0 1 0 0 -1 0 0 1 0 0 -1 0 0 0 0 0 0 0 0 0 0zm0 0c2,-2 4,-2 5,0 2,1 2,3 0,5l-5 -5z"/>
   </g>
   <g>
    <path class="fil0" d="M112 5c2,-1 4,0 4,2 1,2 0,4 -2,4l-2 -6zm67 16l-5 4 0 0 -2 -2 -3 -2 -2 -2 -2 -2 -3 -2 -2 -1 -3 -2 -2 -1 -3 -1 -2 0 -3 -1 -2 0 -3 -1 -2 0 -3 0 -2 0 -3 0 -2 0 -2 0 -2 1 -2 0 -2 0 -1 1 -2 0 -1 0 -1 1 -1 0 -1 0 -1 0 0 0 1 0 -3 -6 2 6 -3 -5 1 -1 0 0 1 0 1 -1 1 0 1 0 2 -1 1 0 2 -1 2 0 2 0 2 0 3 -1 2 0 3 0 2 0 3 0 3 1 3 0 3 0 2 1 3 1 3 1 3 1 3 2 3 1 3 2 3 2 2 3 3 2 2 3 0 0zm0 0c1,2 1,4 0,5 -2,1 -4,1 -5,-1l5 -4zm-24 94l-6 -4 2 -3 2 -3 2 -4 2 -3 2 -3 1 -4 2 -3 2 -3 1 -4 1 -3 2 -4 1 -3 1 -3 1 -3 1 -3 1 -4 0 -3 1 -3 1 -2 0 -3 1 -3 0 -2 0 -3 0 -2 0 -2 0 -2 0 -2 -1 -1 0 -2 0 -1 -1 -1 0 -1 5 -4 1 2 1 1 1 2 0 2 1 2 0 2 0 3 0 2 0 3 0 2 -1 3 0 3 -1 3 0 3 -1 3 -1 3 -1 3 0 4 -2 3 -1 3 -1 4 -1 3 -2 4 -1 3 -2 4 -2 3 -1 4 -2 3 -2 4 -2 3 -2 4 -2 3zm0 0c-2,2 -4,2 -5,1 -2,-1 -2,-3 -1,-5l6 4z"/>
   </g>
   <g>
    <path class="fil0" d="M148 114c0,-2 1,-4 3,-4 2,-1 4,1 4,2l-7 2zm27 -1l1 6 0 0 -2 1 -2 0 -2 1 -2 0 -1 0 -2 0 -1 0 -2 0 -1 0 -1 0 -1 0 -1 0 -1 -1 -1 0 -1 0 -1 0 -1 -1 -1 0 0 -1 -1 0 0 0 -1 -1 0 0 0 -1 -1 0 0 0 0 -1 0 0 0 0 -1 -1 0 0 0 0 7 -2 0 0 0 0 0 0 0 0 0 0 0 0 0 0 0 0 0 0 0 0 0 0 0 1 1 0 0 0 0 0 1 0 0 0 0 1 1 0 1 0 1 0 0 0 1 0 1 0 2 0 1 0 1 0 2 0 1 0 2 -1 2 0 2 0 0 0zm-4 16l-3 -6 0 0 1 0 1 -1 0 0 1 0 1 -1 1 0 0 -1 1 0 0 -1 1 0 0 -1 1 0 0 0 1 -1 0 0 0 0 0 0 0 0 0 0 0 0 0 0 0 1 0 1 1 0 0 0 0 0 0 0 0 0 0 0 -1 0 0 0 -1 0 -1 -6 1 0 1 -1 1 0 0 0 1 0 1 1 1 0 1 0 1 1 1 1 0 2 0 1 0 1 -1 0 0 1 0 1 -1 0 0 1 -1 0 0 1 -1 1 -1 0 0 1 -1 0 -1 1 -1 0 0 1 -1 0 -1 1 -1 0 -1 1 -1 0 0 0zm-32 -3l7 0 0 0 0 -1 0 0 0 0 0 0 0 0 0 0 1 0 0 0 1 1 0 0 1 0 1 0 0 0 1 0 1 0 1 0 1 0 1 0 1 0 1 0 1 0 1 0 1 -1 1 0 1 0 1 0 1 0 1 -1 1 0 1 0 0 0 1 -1 3 6 -1 1 -1 0 -1 1 -1 0 -1 0 -1 0 -1 1 -1 0 -2 0 -1 0 -1 0 -1 1 -1 0 -1 0 -2 0 -1 0 -1 0 -1 0 -1 0 -1 0 -1 0 -1 -1 -1 0 -1 0 -1 0 -1 -1 -1 0 0 -1 -1 -1 -1 -1 0 -1 -1 -1 0 0zm9 -12l7 -2 0 0 0 1 0 1 0 2 -1 0 -1 1 0 0 -1 1 0 0 -1 0 0 0 -1 0 0 0 0 1 -1 0 0 0 0 0 -1 0 0 0 0 0 0 0 0 1 -1 0 0 0 0 0 0 1 0 0 0 1 -1 0 0 1 0 1 0 1 0 1 -7 0 0 -1 0 -2 1 -1 0 -1 0 -1 0 -1 1 -1 0 -1 1 -1 0 0 1 -1 0 -1 1 0 1 -1 0 0 1 0 0 -1 1 0 1 0 0 0 0 0 1 0 0 0 0 -1 0 0 0 0 0 1 0 0 0 0 -1 1 0 1 0 0 0 0zm-8 -13l6 -3 0 0 1 1 0 1 0 0 1 1 0 0 0 1 0 0 1 1 0 0 0 1 1 0 0 0 0 1 0 0 1 1 0 0 0 0 1 1 0 0 0 0 1 1 0 0 0 1 0 0 1 0 0 1 0 0 0 0 1 1 0 0 0 1 0 0 -7 2 0 0 0 0 0 0 0 0 0 -1 0 0 0 0 0 0 0 0 -1 -1 0 0 0 0 0 -1 -1 0 0 0 0 -1 -1 0 0 -1 0 0 -1 0 0 -1 0 0 -1 -1 0 -1 0 0 -1 -1 0 0 0 -1 -1 -1 0 0 -1 -1 0 -1 0 0zm12 -53l1 6 -1 0 -4 0 -3 0 -3 0 -2 0 -2 1 -2 0 -1 1 -1 1 -1 1 0 1 -1 1 0 2 0 2 0 1 1 2 0 2 1 3 0 2 1 2 1 2 1 2 1 3 1 2 1 2 1 2 1 2 1 1 1 2 1 1 1 1 0 2 0 0 -6 3 0 0 -1 -1 0 -1 -1 -2 -1 -1 -1 -2 -1 -2 -1 -2 -1 -2 -1 -2 -1 -3 -1 -2 -1 -2 -1 -3 -1 -2 -1 -3 0 -2 0 -3 -1 -2 0 -3 1 -2 0 -2 1 -3 2 -2 2 -1 2 -2 3 -1 2 -1 4 0 3 0 4 0 4 1 -1 0zm-54 -38l0 -7 0 0 4 0 4 1 4 1 3 0 4 2 3 1 3 1 3 2 3 2 3 1 2 2 3 2 2 2 2 3 2 2 2 2 1 2 2 2 1 2 1 2 1 2 1 2 1 2 1 2 1 1 0 2 1 1 0 1 0 1 0 1 0 2 -3 2 -1 -6 -2 2 -1 1 0 0 0 -1 0 -1 0 -1 -1 -1 0 -2 -1 -1 -1 -2 -1 -1 -1 -2 -1 -2 -1 -2 -1 -2 -2 -2 -1 -2 -2 -2 -2 -2 -2 -1 -2 -2 -2 -2 -3 -2 -2 -1 -3 -2 -2 -1 -3 -1 -3 -1 -4 -1 -3 0 -4 -1 -3 0 0 0zm-38 49l-7 1 0 -1 0 0 0 -1 0 -1 0 -1 0 -2 0 -1 0 -2 0 -2 1 -2 0 -3 1 -2 0 -3 1 -2 1 -3 1 -2 1 -3 1 -3 1 -2 2 -3 2 -2 1 -3 3 -2 2 -2 2 -2 3 -2 3 -1 3 -1 4 -2 4 0 4 -1 4 0 0 7 -4 0 -3 1 -3 0 -3 1 -3 1 -2 1 -3 2 -2 1 -2 2 -1 2 -2 2 -1 2 -2 2 -1 2 -1 3 -1 2 -1 2 -1 3 0 2 -1 2 0 3 -1 2 0 2 0 2 0 1 0 2 0 1 0 1 0 1 0 1 0 0 0 0zm0 0c0,2 -2,4 -4,4 -2,0 -3,-1 -3,-3l7 -1z"/>
   </g>
   <g>
    <path class="fil0" d="M66 131l-2 -6 0 0 1 0 1 -1 1 0 1 0 1 0 0 0 1 -1 1 0 0 0 0 0 1 0 0 -1 0 0 1 0 0 0 0 0 0 0 1 -1 0 0 0 0 0 0 1 -1 0 0 0 0 0 -1 1 0 0 -1 1 0 0 -1 0 0 1 -1 1 -1 5 5 -1 1 0 0 -1 1 0 0 -1 1 0 0 0 1 -1 0 0 0 0 1 -1 0 0 1 0 0 -1 0 0 1 -1 0 0 1 -1 0 0 0 -1 1 0 0 -1 0 -1 0 0 1 -1 0 -1 0 0 0 -1 1 -1 0 -1 0 -1 0 -1 0 0 0zm0 0c-2,1 -4,0 -4,-2 -1,-2 0,-4 2,-4l2 6zm-1 2l-1 7 0 0 -1 -1 0 0 -1 0 0 0 -1 0 -1 -1 0 0 -1 0 0 0 -1 -1 0 0 -1 -1 0 0 -1 -1 0 0 -1 -1 0 0 0 -1 0 -1 0 -1 0 -1 1 -1 0 -1 1 0 1 -1 0 0 1 -1 1 0 1 0 1 -1 1 0 1 0 2 6 -1 1 -1 0 -1 0 -1 0 0 1 0 0 -1 0 0 0 0 0 0 0 0 0 1 -1 0 0 0 -1 0 0 -1 0 0 0 0 0 1 0 0 0 0 0 0 0 0 1 1 0 0 0 0 0 1 0 0 0 0 1 1 0 0 0 0 0 0 0zm0 0c2,0 3,2 3,4 -1,2 -2,3 -4,3l1 -7zm24 -8l6 4 0 0 -1 2 -1 1 -1 1 -1 1 -1 1 -1 1 -1 0 -1 1 -1 1 -2 0 -1 1 -1 0 -1 1 -1 0 -1 0 -1 0 -1 0 -1 1 -1 0 -1 0 -1 0 -1 0 -1 0 -1 0 -1 -1 -1 0 -1 0 -1 0 0 0 -1 0 -1 0 0 0 1 -7 1 0 0 0 1 0 1 0 0 0 1 1 1 0 0 0 1 0 1 0 1 0 0 0 1 0 1 0 1 0 1 0 0 -1 1 0 1 0 1 0 1 -1 0 0 1 0 1 -1 1 0 1 -1 0 -1 1 0 1 -1 1 -1 1 -1 0 -1 0 0zm0 0c1,-1 4,-2 5,-1 2,2 2,4 1,5l-6 -4zm-2 -6l3 -6 0 0 0 0 1 0 0 1 1 0 0 0 1 1 0 0 0 1 1 0 0 1 1 0 0 1 0 0 0 1 1 0 0 1 0 0 0 1 0 0 0 1 1 1 0 0 0 1 0 0 0 1 -1 1 0 0 0 1 0 0 0 1 -1 1 0 0 -6 -4 0 0 0 0 1 0 0 0 0 0 0 -1 0 0 0 0 0 0 0 -1 0 0 0 0 0 0 0 0 -1 -1 0 0 0 0 0 -1 0 0 0 0 0 0 0 0 -1 -1 0 0 0 0 0 0 0 0 0 0 -1 -1 0 0 0 0 0 0 0 0zm0 0c-2,-1 -3,-3 -2,-4 1,-2 3,-3 5,-2l-3 6zm-3 1l-5 -5 0 0 0 0 0 0 1 -1 0 0 0 0 1 -1 0 0 1 0 0 0 0 0 1 -1 0 0 1 0 0 0 1 0 0 0 0 0 1 0 0 0 0 0 1 0 0 0 0 0 1 0 0 0 0 0 1 0 0 1 0 0 0 0 0 0 1 0 -3 6 0 0 0 0 0 0 -1 0 0 0 0 0 0 0 0 0 0 0 0 0 0 0 0 0 0 0 0 0 0 0 0 0 -1 0 0 0 0 0 0 0 0 0 0 0 0 0 0 0 0 0 0 0 0 0 -1 0 0 0 0 1 0 0 0 0 0 0zm0 0c-2,1 -4,2 -5,0 -2,-1 -2,-3 0,-5l5 5zm-3 -2l0 0 0 0 0 0 3 2 -3 -2zm3 2c-2,1 -4,2 -5,0 -2,-1 -2,-3 0,-5l5 5z"/>
   </g>
   <g>
    <path class="fil0" d="M84 117c0,2 -1,4 -3,4 -2,0 -3,-1 -4,-3l7 -1zm-3 -15l6 3 0 0 0 0 0 1 0 0 0 1 -1 0 0 1 0 0 0 1 0 0 0 1 -1 0 0 0 0 1 0 0 0 1 0 0 0 0 0 1 -1 0 0 1 0 0 0 0 0 1 0 0 0 0 0 1 0 0 0 0 0 0 0 1 0 0 0 0 -7 1 0 0 0 -1 0 0 0 -1 0 0 0 -1 0 0 0 -1 0 0 0 -1 1 0 0 -1 0 0 0 -1 0 0 0 -1 0 0 0 -1 1 0 0 -1 0 0 0 -1 0 0 0 -1 1 0 0 -1 0 0 0 -1 0 0 0 -1 1 0 0 -1 0 0zm0 0c1,-1 2,-2 4,-2 2,1 3,3 2,5l-6 -3zm4 -40l7 -2 0 0 0 3 1 2 0 2 1 3 0 2 0 2 0 2 0 1 0 2 0 2 0 2 0 1 0 2 -1 1 0 1 0 2 0 1 -1 1 0 1 0 1 -1 2 0 1 -1 1 0 0 0 1 -1 1 0 1 0 1 -1 1 0 0 0 1 -1 1 -6 -3 0 -1 1 0 0 -1 0 -1 1 -1 0 -1 0 0 1 -1 0 -1 0 -1 1 -1 0 -1 0 -1 1 -1 0 -1 0 -1 0 -1 1 -1 0 -1 0 -2 0 -1 0 -1 0 -2 0 -1 0 -2 0 -2 0 -2 0 -2 -1 -2 0 -2 0 -2 -1 -2 0 0zm0 0c0,-2 1,-4 3,-4 2,-1 3,0 4,2l-7 2zm-25 -2l-7 0 0 0 0 -2 1 -1 0 -1 1 -1 1 0 1 -1 1 0 1 -1 1 -1 1 0 2 -1 1 0 1 -1 2 0 1 -1 2 0 2 -1 1 0 2 0 1 0 2 0 2 0 1 0 2 1 2 1 1 1 1 1 2 1 1 2 1 1 0 2 1 2 -7 2 0 -2 -1 -1 0 -1 -1 -1 0 0 -1 -1 -1 0 -1 -1 0 0 -1 0 -1 0 -2 0 -1 0 -1 0 -1 0 -1 0 -2 1 -1 0 -1 0 -1 1 -2 0 -1 1 -1 0 -1 1 -1 0 0 1 -1 0 0 1 -1 0 0 0 0 0 1 -1 0 0zm0 0c0,1 -2,3 -4,3 -2,0 -3,-2 -3,-3l7 0zm-1 26l-7 -1 0 0 0 -1 1 -1 0 -1 0 -1 0 -2 0 -1 0 -1 0 -1 0 -1 0 -1 0 -1 0 -1 0 0 0 -1 0 -1 0 -1 0 -1 0 -1 0 0 0 -1 0 -1 0 -1 0 0 0 -1 0 0 0 -1 0 0 0 -1 0 0 0 -1 0 0 0 0 7 0 0 0 0 0 0 0 0 1 0 0 0 1 0 0 0 1 0 0 0 1 0 1 0 0 0 1 0 1 0 1 0 1 0 1 0 1 0 1 0 0 0 1 0 2 0 1 0 1 0 1 0 1 0 1 0 1 -1 1 0 2 0 1 0 1 0 0zm0 0c0,2 -2,3 -4,3 -2,0 -3,-2 -3,-4l7 1zm21 25l1 7 -2 0 -1 0 -2 0 -1 -1 -2 0 -1 0 -2 -1 -1 0 -1 -1 -2 -1 -1 0 -1 -1 -2 -1 -1 -1 -1 -1 -1 -1 -1 -1 -1 -2 -1 -1 0 -1 -1 -2 -1 -1 0 -2 -1 -1 0 -2 -1 -1 0 -2 0 -1 0 -2 0 -2 0 -1 0 -2 7 1 0 1 0 2 0 1 0 1 0 1 0 2 0 1 1 1 0 1 1 1 0 1 1 1 0 1 1 1 1 1 0 1 1 1 1 1 1 1 1 0 1 1 1 0 1 1 1 0 1 1 1 0 1 0 1 1 1 0 1 0 1 0 1 0zm0 0c2,0 4,1 4,3 0,2 -1,3 -3,4l-1 -7z"/>
   </g>
   <g>
    <path class="fil1" d="M74 59c0,1 2,3 4,4 2,0 4,-2 4,-3 1,-1 -1,-2 -4,-2 -2,0 -4,0 -4,1l0 0z"/>
    <path id="1" class="fil0" d="M78 62l0 2 0 0 0 0 -1 0 0 0 0 0 0 0 -1 -1 0 0 0 0 0 0 -1 0 0 0 0 0 0 -1 0 0 -1 0 0 0 0 0 0 0 0 -1 0 0 0 0 -1 0 0 0 0 0 0 -1 0 0 0 0 0 0 0 0 0 -1 0 0 0 0 2 0 0 0 0 0 0 0 0 0 0 0 0 0 0 0 0 1 0 0 0 0 0 0 1 0 0 0 0 0 0 0 0 0 0 1 0 0 0 0 0 0 1 0 0 0 0 0 0 0 0 0 0 0 0 0 1 1 0 0 0 0 0 0 0 0 0 0zm3 -2l3 1 0 0 0 0 -1 0 0 0 0 0 0 0 0 1 0 0 0 0 0 0 0 0 -1 0 0 0 0 1 0 0 0 0 0 0 -1 0 0 0 0 0 0 0 0 1 -1 0 0 0 0 0 0 0 -1 0 0 0 0 0 0 0 -1 0 0 0 0 0 0 -2 0 0 0 0 1 0 0 0 0 0 0 0 0 0 0 0 0 0 1 -1 0 0 0 0 0 0 0 0 0 0 0 0 1 0 0 0 0 0 0 0 0 0 0 0 0 0 0 -1 0 0 0 0 0 0 0 0 0 0 0 0 0 0 0 0 0 0zm-3 -1l1 -2 0 0 0 0 0 0 0 0 1 0 0 0 0 0 0 0 0 0 1 0 0 1 0 0 0 0 0 0 1 0 0 0 0 0 0 0 0 0 0 0 1 0 0 1 0 0 0 0 0 0 0 0 0 0 0 0 0 1 1 0 0 0 0 0 0 1 -3 -1 0 0 0 0 0 0 0 0 0 0 0 0 0 0 0 0 0 0 0 0 0 0 0 0 0 0 0 0 0 0 0 0 0 0 0 0 -1 0 0 0 0 0 0 0 0 0 0 0 0 0 -1 -1 0 0 0 0 0 0 0 0 -1 0 0 0 0 0zm-4 1l0 -2 -1 1 0 0 0 0 0 -1 0 0 0 0 1 0 0 0 0 0 0 0 0 -1 0 0 0 0 1 0 0 0 0 0 0 0 0 0 1 0 0 0 0 0 0 0 0 0 1 0 0 0 0 0 0 0 0 0 1 0 0 0 0 0 0 0 1 0 -1 2 0 0 0 0 0 0 0 0 -1 0 0 0 0 0 0 0 0 0 0 0 -1 0 0 0 0 0 0 0 0 0 0 0 0 0 -1 0 0 0 0 0 0 0 0 0 0 1 0 0 0 0 0 0 0 0 0 0 0 -1 0 0 0 0 0 0 -1 1zm1 -1l0 1 -1 0 1 -1zm-1 -1l0 0 0 2 0 0 -1 -1 1 -1zm-1 1l0 -1 1 0 -1 1z"/>
   </g>
   <g>
    <path class="fil1" d="M145 57c0,1 -2,4 -4,4 -3,0 -5,-2 -5,-2 0,-1 2,-2 4,-3 1,0 4,1 5,1z"/>
    <path id="1" class="fil0" d="M141 61l-1 -1 0 0 1 0 0 0 0 0 0 0 0 0 1 0 0 0 0 0 0 0 0 0 0 -1 0 0 1 0 0 0 0 0 0 0 0 0 0 0 0 -1 0 0 1 0 0 0 0 0 0 0 0 0 0 0 0 -1 0 0 0 0 0 0 0 0 0 0 1 0 0 0 0 1 0 0 0 0 0 0 0 0 0 0 0 0 0 0 0 1 -1 0 0 0 0 0 0 0 0 0 0 1 0 0 0 0 -1 0 0 0 0 0 0 0 0 1 -1 0 0 0 0 0 0 0 0 0 -1 0 0 0 0 0 0 0 0 0zm-5 -2l1 -1 0 0 0 0 0 0 0 1 0 0 0 0 0 0 0 0 0 0 0 0 0 0 0 0 0 0 0 0 1 1 0 0 0 0 0 0 0 0 0 0 0 0 1 0 0 0 0 0 0 0 0 0 0 0 1 0 0 0 0 0 0 0 0 0 0 0 1 1 -1 1 0 0 0 0 0 0 -1 -1 0 0 0 0 0 0 0 0 -1 0 0 0 0 0 0 0 0 0 -1 0 0 0 0 0 0 -1 0 0 0 0 -1 0 0 0 0 0 0 0 0 0 0 -1 0 0 0 0 0 0 0 0 0 0 0 0 0 0zm0 0l0 0 0 0 0 0zm4 -3l0 1 0 0 0 0 0 0 0 0 -1 0 0 0 0 0 0 0 0 0 -1 0 0 0 0 0 0 0 0 0 0 1 0 0 -1 0 0 0 0 0 0 0 0 0 0 0 0 0 0 0 0 0 0 0 0 0 0 0 0 0 0 0 0 0 0 0 0 0 -1 1 -1 -1 1 0 0 0 0 0 0 0 0 0 0 0 0 -1 0 0 0 0 0 0 0 0 0 0 1 0 0 0 0 0 0 0 0 0 0 -1 1 0 0 0 0 0 0 0 0 0 1 0 0 0 0 0 0 0 0 0 1 0 0 0 0 0 0 0zm5 1l-1 0 0 0 0 1 0 0 0 0 0 0 0 0 0 0 0 -1 0 0 0 0 0 0 -1 0 0 0 0 0 0 0 0 0 0 0 0 0 -1 0 0 0 0 0 0 0 0 0 -1 0 0 0 0 0 0 0 0 0 0 0 0 0 -1 0 0 0 0 0 0 -1 0 0 0 0 1 0 0 0 0 0 0 0 0 0 0 0 1 0 0 0 0 0 0 0 0 0 1 0 0 0 0 0 0 0 0 0 0 0 1 0 0 0 0 0 0 0 0 0 0 0 0 1 1 0 0 0 0 0 0 0 0 0 0 0 0 0z"/>
   </g>
   <g>
    <path class="fil0" d="M149 51c0,-2 2,-3 4,-3 1,0 3,1 3,3l-7 0zm5 20l-6 -1 0 0 0 0 0 -1 0 -1 0 0 0 -1 0 -1 0 0 0 -1 0 -1 0 0 0 -1 0 -1 0 0 1 -1 0 0 0 -1 0 0 0 -1 0 -1 0 0 0 -1 0 0 0 -1 0 0 0 -1 0 0 0 -1 0 0 0 -1 0 -1 0 0 0 -1 7 0 0 1 0 0 0 1 0 1 0 0 0 1 0 1 0 0 0 1 0 1 0 0 0 1 0 0 0 1 0 1 -1 0 0 1 0 0 0 1 0 0 0 1 0 1 0 0 0 1 0 0 0 1 0 0 0 1 -1 1 0 0 0 1 0 1 0 0zm0 0c0,2 -1,3 -3,3 -2,0 -4,-2 -3,-4l6 1zm-3 37l-6 -3 1 -1 0 -1 1 -2 0 -1 1 -1 0 -1 0 -1 0 -1 1 -1 0 -1 0 -1 0 -1 0 -1 0 -1 0 -1 0 -1 0 -1 0 -1 0 -1 0 -1 -1 -1 0 -1 0 -2 0 -1 0 -1 0 -1 0 -1 0 -1 0 -1 0 -1 0 -1 0 -2 6 1 0 1 0 0 0 1 0 1 1 1 0 1 0 2 0 1 0 1 0 1 0 1 0 1 1 1 0 1 0 2 0 1 0 1 0 1 0 1 0 2 0 1 0 1 -1 2 0 1 0 1 -1 1 0 2 -1 1 0 1 -1 2 -1 1 0 1zm0 0c-1,2 -4,2 -5,1 -2,-1 -2,-3 -1,-4l6 3z"/>
   </g>
  </g>
  <g>
   <g>
    <path class="fil0" d="M90 123c0,-2 1,-3 3,-3 2,0 4,1 4,3l-7 0zm9 48l-7 3 0 0 0 -1 0 -1 0 -1 -1 -1 0 -1 0 -1 0 -1 0 -1 0 -1 -1 -2 0 -1 0 -2 0 -1 0 -2 0 -1 0 -2 0 -2 0 -1 0 -2 0 -2 0 -2 0 -2 0 -2 0 -2 0 -2 0 -2 0 -2 0 -2 0 -2 0 -2 0 -2 0 -2 7 0 0 2 0 2 -1 2 0 2 0 2 0 2 0 2 0 2 0 2 0 2 0 2 1 2 0 2 0 1 0 2 0 2 0 1 0 2 0 2 0 1 0 1 0 2 0 1 1 1 0 1 0 1 0 1 0 1 0 1 0 0 1 1 0 0 0 0zm0 0c0,2 0,4 -2,5 -2,0 -4,-1 -5,-2l7 -3zm18 10l2 7 0 0 -2 0 -1 1 -2 0 -1 0 -2 0 -1 0 -1 0 -2 -1 -1 0 -1 0 -1 -1 -1 0 -1 -1 -1 0 -1 -1 -1 -1 0 0 -1 -1 -1 -1 0 0 -1 -1 0 -1 -1 -1 0 0 -1 -1 0 -1 0 0 -1 -1 0 -1 0 0 0 -1 -1 0 7 -3 0 1 0 0 0 1 1 0 0 1 0 0 0 1 1 0 0 1 0 0 1 1 0 0 0 1 1 0 0 1 1 0 0 1 1 0 0 0 1 1 1 0 0 0 1 0 1 1 1 0 1 0 0 0 1 0 2 0 1 0 1 0 1 -1 0 0zm0 0c2,0 4,1 4,3 1,2 0,4 -2,4l-2 -7zm18 -17l6 1 0 0 0 1 0 1 0 1 -1 2 0 1 0 1 -1 1 0 1 0 1 -1 0 0 1 -1 1 0 1 -1 1 -1 1 0 0 -1 1 -1 1 -1 0 0 1 -1 1 -1 0 -1 1 -1 0 -1 1 -1 0 -1 0 -1 1 -2 0 -1 1 -1 0 -1 0 -2 -7 1 0 1 0 2 0 0 -1 1 0 1 0 1 -1 1 0 1 0 0 -1 1 0 1 -1 0 0 1 0 0 -1 1 0 0 -1 1 0 0 -1 0 0 1 -1 0 -1 0 0 1 -1 0 -1 0 -1 1 0 0 -1 0 -1 0 -1 0 -1 1 -1 0 0zm0 0c0,-2 2,-3 4,-3 1,0 3,2 2,4l-6 -1zm4 -38l7 0 0 1 0 0 0 1 0 1 0 1 0 1 0 1 0 1 -1 1 0 2 0 1 0 1 0 2 0 1 -1 2 0 1 0 2 0 1 0 2 0 1 -1 2 0 1 0 1 0 2 0 1 -1 1 0 2 0 1 0 1 0 1 0 1 -1 1 -6 -1 0 -1 0 -1 0 -1 0 -1 0 -1 1 -1 0 -2 0 -1 0 -1 0 -2 1 -1 0 -2 0 -1 0 -2 0 -1 0 -2 1 -1 0 -2 0 -1 0 -1 0 -2 0 -1 1 -1 0 -2 0 -1 0 -1 0 -1 0 -1 0 -1 0 0 0 -1 0 0zm0 0c1,-2 2,-4 4,-4 2,1 3,2 3,4l-7 0z"/>
   </g>
   <g>
    <path class="fil0" d="M76 10c1,1 2,3 1,5 0,2 -2,2 -4,2l3 -7zm-66 40l-7 1 0 0 0 -6 0 -6 1 -5 1 -5 1 -4 2 -4 3 -4 2 -2 3 -3 3 -2 3 -2 3 -1 3 -2 4 0 3 -1 4 0 3 0 4 0 3 0 3 0 3 1 4 0 2 1 3 1 3 0 2 1 2 1 1 0 2 1 1 0 0 0 1 0 -3 7 0 0 -1 -1 -1 0 -1 0 -1 -1 -2 0 -2 -1 -3 -1 -2 0 -3 -1 -3 0 -3 -1 -3 0 -3 0 -3 0 -3 0 -3 0 -3 0 -3 1 -2 1 -3 1 -3 2 -2 1 -2 2 -2 3 -2 2 -1 3 -1 4 -1 4 -1 5 0 5 0 5 0 0zm0 0c0,2 -2,4 -4,4 -1,0 -3,-1 -3,-3l7 -1zm37 77l5 5 0 0 -2 2 -3 2 -3 2 -3 0 -3 0 -2 -1 -3 -2 -2 -2 -2 -2 -2 -3 -2 -3 -2 -3 -2 -3 -2 -4 -1 -4 -2 -4 -1 -4 -2 -4 -1 -5 -1 -4 -1 -4 -1 -4 -1 -4 -1 -4 -1 -4 -1 -4 0 -3 -1 -3 0 -3 -1 -2 0 -2 0 -2 7 -1 0 2 0 2 0 2 1 3 0 3 1 3 1 3 0 4 1 4 1 4 1 4 2 4 1 4 1 5 1 4 2 4 1 3 2 4 1 4 2 3 2 3 1 2 2 3 2 1 1 2 2 1 1 0 1 0 1 0 2 -1 1 -1 2 -2 0 0zm0 0c1,-1 4,-1 5,0 1,1 2,3 0,5l-5 -5zm16 -18l5 5 0 0 0 0 0 0 0 0 0 0 0 0 -1 1 0 0 0 0 -1 1 0 0 0 1 -1 0 0 1 -1 0 0 1 -1 0 -1 1 0 1 -1 0 0 1 -1 1 -1 1 -1 0 0 1 -1 1 -1 1 0 1 -1 1 -1 1 -1 1 -1 1 -5 -5 1 -1 1 -1 1 -1 0 -1 1 0 1 -1 1 -1 0 -1 1 -1 1 -1 0 0 1 -1 1 -1 0 -1 1 0 1 -1 0 0 1 -1 0 -1 1 0 0 -1 0 0 1 0 0 -1 0 0 1 0 0 -1 0 0 0 0 0 0 0 0 0 0zm0 0c2,-2 4,-2 5,0 2,1 2,3 0,5l-5 -5z"/>
   </g>
   <g>
    <path class="fil0" d="M112 5c2,-1 4,0 4,2 1,2 0,4 -2,4l-2 -6zm67 16l-5 4 0 0 -2 -2 -3 -2 -2 -2 -2 -2 -3 -2 -2 -1 -3 -2 -2 -1 -3 -1 -2 0 -3 -1 -2 0 -3 -1 -2 0 -3 0 -2 0 -3 0 -2 0 -2 0 -2 1 -2 0 -2 0 -1 1 -2 0 -1 0 -1 1 -1 0 -1 0 -1 0 0 0 1 0 -3 -6 2 6 -3 -5 1 -1 0 0 1 0 1 -1 1 0 1 0 2 -1 1 0 2 -1 2 0 2 0 2 0 3 -1 2 0 3 0 2 0 3 0 3 1 3 0 3 0 2 1 3 1 3 1 3 1 3 2 3 1 3 2 3 2 2 3 3 2 2 3 0 0zm0 0c1,2 1,4 0,5 -2,1 -4,1 -5,-1l5 -4zm-24 94l-6 -4 2 -3 2 -3 2 -4 2 -3 2 -3 1 -4 2 -3 2 -3 1 -4 1 -3 2 -4 1 -3 1 -3 1 -3 1 -3 1 -4 0 -3 1 -3 1 -2 0 -3 1 -3 0 -2 0 -3 0 -2 0 -2 0 -2 0 -2 -1 -1 0 -2 0 -1 -1 -1 0 -1 5 -4 1 2 1 1 1 2 0 2 1 2 0 2 0 3 0 2 0 3 0 2 -1 3 0 3 -1 3 0 3 -1 3 -1 3 -1 3 0 4 -2 3 -1 3 -1 4 -1 3 -2 4 -1 3 -2 4 -2 3 -1 4 -2 3 -2 4 -2 3 -2 4 -2 3zm0 0c-2,2 -4,2 -5,1 -2,-1 -2,-3 -1,-5l6 4z"/>
   </g>
   <g>
    <path class="fil0" d="M148 114c0,-2 1,-4 3,-4 2,-1 4,1 4,2l-7 2zm27 -1l1 6 0 0 -2 1 -2 0 -2 1 -2 0 -1 0 -2 0 -1 0 -2 0 -1 0 -1 0 -1 0 -1 0 -1 -1 -1 0 -1 0 -1 0 -1 -1 -1 0 0 -1 -1 0 0 0 -1 -1 0 0 0 -1 -1 0 0 0 0 -1 0 0 0 0 -1 -1 0 0 0 0 7 -2 0 0 0 0 0 0 0 0 0 0 0 0 0 0 0 0 0 0 0 0 0 0 0 1 1 0 0 0 0 0 1 0 0 0 0 1 1 0 1 0 1 0 0 0 1 0 1 0 2 0 1 0 1 0 2 0 1 0 2 -1 2 0 2 0 0 0zm-4 16l-3 -6 0 0 1 0 1 -1 0 0 1 0 1 -1 1 0 0 -1 1 0 0 -1 1 0 0 -1 1 0 0 0 1 -1 0 0 0 0 0 0 0 0 0 0 0 0 0 0 0 1 0 1 1 0 0 0 0 0 0 0 0 0 0 0 -1 0 0 0 -1 0 -1 -6 1 0 1 -1 1 0 0 0 1 0 1 1 1 0 1 0 1 1 1 1 0 2 0 1 0 1 -1 0 0 1 0 1 -1 0 0 1 -1 0 0 1 -1 1 -1 0 0 1 -1 0 -1 1 -1 0 0 1 -1 0 -1 1 -1 0 -1 1 -1 0 0 0zm-32 -3l7 0 0 0 0 -1 0 0 0 0 0 0 0 0 0 0 1 0 0 0 1 1 0 0 1 0 1 0 0 0 1 0 1 0 1 0 1 0 1 0 1 0 1 0 1 0 1 0 1 -1 1 0 1 0 1 0 1 0 1 -1 1 0 1 0 0 0 1 -1 3 6 -1 1 -1 0 -1 1 -1 0 -1 0 -1 0 -1 1 -1 0 -2 0 -1 0 -1 0 -1 1 -1 0 -1 0 -2 0 -1 0 -1 0 -1 0 -1 0 -1 0 -1 0 -1 -1 -1 0 -1 0 -1 0 -1 -1 -1 0 0 -1 -1 -1 -1 -1 0 -1 -1 -1 0 0zm9 -12l7 -2 0 0 0 1 0 1 0 2 -1 0 -1 1 0 0 -1 1 0 0 -1 0 0 0 -1 0 0 0 0 1 -1 0 0 0 0 0 -1 0 0 0 0 0 0 0 0 1 -1 0 0 0 0 0 0 1 0 0 0 1 -1 0 0 1 0 1 0 1 0 1 -7 0 0 -1 0 -2 1 -1 0 -1 0 -1 0 -1 1 -1 0 -1 1 -1 0 0 1 -1 0 -1 1 0 1 -1 0 0 1 0 0 -1 1 0 1 0 0 0 0 0 1 0 0 0 0 -1 0 0 0 0 0 1 0 0 0 0 -1 1 0 1 0 0 0 0zm-8 -13l6 -3 0 0 1 1 0 1 0 0 1 1 0 0 0 1 0 0 1 1 0 0 0 1 1 0 0 0 0 1 0 0 1 1 0 0 0 0 1 1 0 0 0 0 1 1 0 0 0 1 0 0 1 0 0 1 0 0 0 0 1 1 0 0 0 1 0 0 -7 2 0 0 0 0 0 0 0 0 0 -1 0 0 0 0 0 0 0 0 -1 -1 0 0 0 0 0 -1 -1 0 0 0 0 -1 -1 0 0 -1 0 0 -1 0 0 -1 0 0 -1 -1 0 -1 0 0 -1 -1 0 0 0 -1 -1 -1 0 0 -1 -1 0 -1 0 0zm12 -53l1 6 -1 0 -4 0 -3 0 -3 0 -2 0 -2 1 -2 0 -1 1 -1 1 -1 1 0 1 -1 1 0 2 0 2 0 1 1 2 0 2 1 3 0 2 1 2 1 2 1 2 1 3 1 2 1 2 1 2 1 2 1 1 1 2 1 1 1 1 0 2 0 0 -6 3 0 0 -1 -1 0 -1 -1 -2 -1 -1 -1 -2 -1 -2 -1 -2 -1 -2 -1 -2 -1 -3 -1 -2 -1 -2 -1 -3 -1 -2 -1 -3 0 -2 0 -3 -1 -2 0 -3 1 -2 0 -2 1 -3 2 -2 2 -1 2 -2 3 -1 2 -1 4 0 3 0 4 0 4 1 -1 0zm-54 -38l0 -7 0 0 4 0 4 1 4 1 3 0 4 2 3 1 3 1 3 2 3 2 3 1 2 2 3 2 2 2 2 3 2 2 2 2 1 2 2 2 1 2 1 2 1 2 1 2 1 2 1 2 1 1 0 2 1 1 0 1 0 1 0 1 0 2 -3 2 -1 -6 -2 2 -1 1 0 0 0 -1 0 -1 0 -1 -1 -1 0 -2 -1 -1 -1 -2 -1 -1 -1 -2 -1 -2 -1 -2 -1 -2 -2 -2 -1 -2 -2 -2 -2 -2 -2 -1 -2 -2 -2 -2 -3 -2 -2 -1 -3 -2 -2 -1 -3 -1 -3 -1 -4 -1 -3 0 -4 -1 -3 0 0 0zm-38 49l-7 1 0 -1 0 0 0 -1 0 -1 0 -1 0 -2 0 -1 0 -2 0 -2 1 -2 0 -3 1 -2 0 -3 1 -2 1 -3 1 -2 1 -3 1 -3 1 -2 2 -3 2 -2 1 -3 3 -2 2 -2 2 -2 3 -2 3 -1 3 -1 4 -2 4 0 4 -1 4 0 0 7 -4 0 -3 1 -3 0 -3 1 -3 1 -2 1 -3 2 -2 1 -2 2 -1 2 -2 2 -1 2 -2 2 -1 2 -1 3 -1 2 -1 2 -1 3 0 2 -1 2 0 3 -1 2 0 2 0 2 0 1 0 2 0 1 0 1 0 1 0 1 0 0 0 0zm0 0c0,2 -2,4 -4,4 -2,0 -3,-1 -3,-3l7 -1z"/>
   </g>
   <g>
    <path class="fil0" d="M66 131l-2 -6 0 0 1 0 1 -1 1 0 1 0 1 0 0 0 1 -1 1 0 0 0 0 0 1 0 0 -1 0 0 1 0 0 0 0 0 0 0 1 -1 0 0 0 0 0 0 1 -1 0 0 0 0 0 -1 1 0 0 -1 1 0 0 -1 0 0 1 -1 1 -1 5 5 -1 1 0 0 -1 1 0 0 -1 1 0 0 0 1 -1 0 0 0 0 1 -1 0 0 1 0 0 -1 0 0 1 -1 0 0 1 -1 0 0 0 -1 1 0 0 -1 0 -1 0 0 1 -1 0 -1 0 0 0 -1 1 -1 0 -1 0 -1 0 -1 0 0 0zm0 0c-2,1 -4,0 -4,-2 -1,-2 0,-4 2,-4l2 6zm-1 2l-1 7 0 0 -1 -1 0 0 -1 0 0 0 -1 0 -1 -1 0 0 -1 0 0 0 -1 -1 0 0 -1 -1 0 0 -1 -1 0 0 -1 -1 0 0 0 -1 0 -1 0 -1 0 -1 1 -1 0 -1 1 0 1 -1 0 0 1 -1 1 0 1 0 1 -1 1 0 1 0 2 6 -1 1 -1 0 -1 0 -1 0 0 1 0 0 -1 0 0 0 0 0 0 0 0 0 1 -1 0 0 0 -1 0 0 -1 0 0 0 0 0 1 0 0 0 0 0 0 0 0 1 1 0 0 0 0 0 1 0 0 0 0 1 1 0 0 0 0 0 0 0zm0 0c2,0 3,2 3,4 -1,2 -2,3 -4,3l1 -7zm24 -8l6 4 0 0 -1 2 -1 1 -1 1 -1 1 -1 1 -1 1 -1 0 -1 1 -1 1 -2 0 -1 1 -1 0 -1 1 -1 0 -1 0 -1 0 -1 0 -1 1 -1 0 -1 0 -1 0 -1 0 -1 0 -1 0 -1 -1 -1 0 -1 0 -1 0 0 0 -1 0 -1 0 0 0 1 -7 1 0 0 0 1 0 1 0 0 0 1 1 1 0 0 0 1 0 1 0 1 0 0 0 1 0 1 0 1 0 1 0 0 -1 1 0 1 0 1 0 1 -1 0 0 1 0 1 -1 1 0 1 -1 0 -1 1 0 1 -1 1 -1 1 -1 0 -1 0 0zm0 0c1,-1 4,-2 5,-1 2,2 2,4 1,5l-6 -4zm-2 -6l3 -6 0 0 0 0 1 0 0 1 1 0 0 0 1 1 0 0 0 1 1 0 0 1 1 0 0 1 0 0 0 1 1 0 0 1 0 0 0 1 0 0 0 1 1 1 0 0 0 1 0 0 0 1 -1 1 0 0 0 1 0 0 0 1 -1 1 0 0 -6 -4 0 0 0 0 1 0 0 0 0 0 0 -1 0 0 0 0 0 0 0 -1 0 0 0 0 0 0 0 0 -1 -1 0 0 0 0 0 -1 0 0 0 0 0 0 0 0 -1 -1 0 0 0 0 0 0 0 0 0 0 -1 -1 0 0 0 0 0 0 0 0zm0 0c-2,-1 -3,-3 -2,-4 1,-2 3,-3 5,-2l-3 6zm-3 1l-5 -5 0 0 0 0 0 0 1 -1 0 0 0 0 1 -1 0 0 1 0 0 0 0 0 1 -1 0 0 1 0 0 0 1 0 0 0 0 0 1 0 0 0 0 0 1 0 0 0 0 0 1 0 0 0 0 0 1 0 0 1 0 0 0 0 0 0 1 0 -3 6 0 0 0 0 0 0 -1 0 0 0 0 0 0 0 0 0 0 0 0 0 0 0 0 0 0 0 0 0 0 0 0 0 -1 0 0 0 0 0 0 0 0 0 0 0 0 0 0 0 0 0 0 0 0 0 -1 0 0 0 0 1 0 0 0 0 0 0zm0 0c-2,1 -4,2 -5,0 -2,-1 -2,-3 0,-5l5 5zm-3 -2l0 0 0 0 0 0 3 2 -3 -2zm3 2c-2,1 -4,2 -5,0 -2,-1 -2,-3 0,-5l5 5z"/>
   </g>
   <g>
    <path class="fil0" d="M84 117c0,2 -1,4 -3,4 -2,0 -3,-1 -4,-3l7 -1zm-3 -15l6 3 0 0 0 0 0 1 0 0 0 1 -1 0 0 1 0 0 0 1 0 0 0 1 -1 0 0 0 0 1 0 0 0 1 0 0 0 0 0 1 -1 0 0 1 0 0 0 0 0 1 0 0 0 0 0 1 0 0 0 0 0 0 0 1 0 0 0 0 -7 1 0 0 0 -1 0 0 0 -1 0 0 0 -1 0 0 0 -1 0 0 0 -1 1 0 0 -1 0 0 0 -1 0 0 0 -1 0 0 0 -1 1 0 0 -1 0 0 0 -1 0 0 0 -1 1 0 0 -1 0 0 0 -1 0 0 0 -1 1 0 0 -1 0 0zm0 0c1,-1 2,-2 4,-2 2,1 3,3 2,5l-6 -3zm4 -40l7 -2 0 0 0 3 1 2 0 2 1 3 0 2 0 2 0 2 0 1 0 2 0 2 0 2 0 1 0 2 -1 1 0 1 0 2 0 1 -1 1 0 1 0 1 -1 2 0 1 -1 1 0 0 0 1 -1 1 0 1 0 1 -1 1 0 0 0 1 -1 1 -6 -3 0 -1 1 0 0 -1 0 -1 1 -1 0 -1 0 0 1 -1 0 -1 0 -1 1 -1 0 -1 0 -1 1 -1 0 -1 0 -1 0 -1 1 -1 0 -1 0 -2 0 -1 0 -1 0 -2 0 -1 0 -2 0 -2 0 -2 0 -2 -1 -2 0 -2 0 -2 -1 -2 0 0zm0 0c0,-2 1,-4 3,-4 2,-1 3,0 4,2l-7 2zm-25 -2l-7 0 0 0 0 -2 1 -1 0 -1 1 -1 1 0 1 -1 1 0 1 -1 1 -1 1 0 2 -1 1 0 1 -1 2 0 1 -1 2 0 2 -1 1 0 2 0 1 0 2 0 2 0 1 0 2 1 2 1 1 1 1 1 2 1 1 2 1 1 0 2 1 2 -7 2 0 -2 -1 -1 0 -1 -1 -1 0 0 -1 -1 -1 0 -1 -1 0 0 -1 0 -1 0 -2 0 -1 0 -1 0 -1 0 -1 0 -2 1 -1 0 -1 0 -1 1 -2 0 -1 1 -1 0 -1 1 -1 0 0 1 -1 0 0 1 -1 0 0 0 0 0 1 -1 0 0zm0 0c0,1 -2,3 -4,3 -2,0 -3,-2 -3,-3l7 0zm-1 26l-7 -1 0 0 0 -1 1 -1 0 -1 0 -1 0 -2 0 -1 0 -1 0 -1 0 -1 0 -1 0 -1 0 -1 0 0 0 -1 0 -1 0 -1 0 -1 0 -1 0 0 0 -1 0 -1 0 -1 0 0 0 -1 0 0 0 -1 0 0 0 -1 0 0 0 -1 0 0 0 0 7 0 0 0 0 0 0 0 0 1 0 0 0 1 0 0 0 1 0 0 0 1 0 1 0 0 0 1 0 1 0 1 0 1 0 1 0 1 0 1 0 0 0 1 0 2 0 1 0 1 0 1 0 1 0 1 0 1 -1 1 0 2 0 1 0 1 0 0zm0 0c0,2 -2,3 -4,3 -2,0 -3,-2 -3,-4l7 1zm21 25l1 7 -2 0 -1 0 -2 0 -1 -1 -2 0 -1 0 -2 -1 -1 0 -1 -1 -2 -1 -1 0 -1 -1 -2 -1 -1 -1 -1 -1 -1 -1 -1 -1 -1 -2 -1 -1 0 -1 -1 -2 -1 -1 0 -2 -1 -1 0 -2 -1 -1 0 -2 0 -1 0 -2 0 -2 0 -1 0 -2 7 1 0 1 0 2 0 1 0 1 0 1 0 2 0 1 1 1 0 1 1 1 0 1 1 1 0 1 1 1 1 1 0 1 1 1 1 1 1 1 1 0 1 1 1 0 1 1 1 0 1 1 1 0 1 0 1 1 1 0 1 0 1 0 1 0zm0 0c2,0 4,1 4,3 0,2 -1,3 -3,4l-1 -7z"/>
   </g>
   <g>
    <path class="fil1" d="M74 59c0,1 2,3 4,4 2,0 4,-2 4,-3 1,-1 -1,-2 -4,-2 -2,0 -4,0 -4,1l0 0z"/>
    <path id="1" class="fil0" d="M78 62l0 2 0 0 0 0 -1 0 0 0 0 0 0 0 -1 -1 0 0 0 0 0 0 -1 0 0 0 0 0 0 -1 0 0 -1 0 0 0 0 0 0 0 0 -1 0 0 0 0 -1 0 0 0 0 0 0 -1 0 0 0 0 0 0 0 0 0 -1 0 0 0 0 2 0 0 0 0 0 0 0 0 0 0 0 0 0 0 0 0 1 0 0 0 0 0 0 1 0 0 0 0 0 0 0 0 0 0 1 0 0 0 0 0 0 1 0 0 0 0 0 0 0 0 0 0 0 0 0 1 1 0 0 0 0 0 0 0 0 0 0zm3 -2l3 1 0 0 0 0 -1 0 0 0 0 0 0 0 0 1 0 0 0 0 0 0 0 0 -1 0 0 0 0 1 0 0 0 0 0 0 -1 0 0 0 0 0 0 0 0 1 -1 0 0 0 0 0 0 0 -1 0 0 0 0 0 0 0 -1 0 0 0 0 0 0 -2 0 0 0 0 1 0 0 0 0 0 0 0 0 0 0 0 0 0 1 -1 0 0 0 0 0 0 0 0 0 0 0 0 1 0 0 0 0 0 0 0 0 0 0 0 0 0 0 -1 0 0 0 0 0 0 0 0 0 0 0 0 0 0 0 0 0 0zm-3 -1l1 -2 0 0 0 0 0 0 0 0 1 0 0 0 0 0 0 0 0 0 1 0 0 1 0 0 0 0 0 0 1 0 0 0 0 0 0 0 0 0 0 0 1 0 0 1 0 0 0 0 0 0 0 0 0 0 0 0 0 1 1 0 0 0 0 0 0 1 -3 -1 0 0 0 0 0 0 0 0 0 0 0 0 0 0 0 0 0 0 0 0 0 0 0 0 0 0 0 0 0 0 0 0 0 0 0 0 -1 0 0 0 0 0 0 0 0 0 0 0 0 0 -1 -1 0 0 0 0 0 0 0 0 -1 0 0 0 0 0zm-4 1l0 -2 -1 1 0 0 0 0 0 -1 0 0 0 0 1 0 0 0 0 0 0 0 0 -1 0 0 0 0 1 0 0 0 0 0 0 0 0 0 1 0 0 0 0 0 0 0 0 0 1 0 0 0 0 0 0 0 0 0 1 0 0 0 0 0 0 0 1 0 -1 2 0 0 0 0 0 0 0 0 -1 0 0 0 0 0 0 0 0 0 0 0 -1 0 0 0 0 0 0 0 0 0 0 0 0 0 -1 0 0 0 0 0 0 0 0 0 0 1 0 0 0 0 0 0 0 0 0 0 0 -1 0 0 0 0 0 0 -1 1zm1 -1l0 1 -1 0 1 -1zm-1 -1l0 0 0 2 0 0 -1 -1 1 -1zm-1 1l0 -1 1 0 -1 1z"/>
   </g>
   <g>
    <path class="fil1" d="M145 57c0,1 -2,4 -4,4 -3,0 -5,-2 -5,-2 0,-1 2,-2 4,-3 1,0 4,1 5,1z"/>
    <path id="1" class="fil0" d="M141 61l-1 -1 0 0 1 0 0 0 0 0 0 0 0 0 1 0 0 0 0 0 0 0 0 0 0 -1 0 0 1 0 0 0 0 0 0 0 0 0 0 0 0 -1 0 0 1 0 0 0 0 0 0 0 0 0 0 0 0 -1 0 0 0 0 0 0 0 0 0 0 1 0 0 0 0 1 0 0 0 0 0 0 0 0 0 0 0 0 0 0 0 1 -1 0 0 0 0 0 0 0 0 0 0 1 0 0 0 0 -1 0 0 0 0 0 0 0 0 1 -1 0 0 0 0 0 0 0 0 0 -1 0 0 0 0 0 0 0 0 0zm-5 -2l1 -1 0 0 0 0 0 0 0 1 0 0 0 0 0 0 0 0 0 0 0 0 0 0 0 0 0 0 0 0 1 1 0 0 0 0 0 0 0 0 0 0 0 0 1 0 0 0 0 0 0 0 0 0 0 0 1 0 0 0 0 0 0 0 0 0 0 0 1 1 -1 1 0 0 0 0 0 0 -1 -1 0 0 0 0 0 0 0 0 -1 0 0 0 0 0 0 0 0 0 -1 0 0 0 0 0 0 -1 0 0 0 0 -1 0 0 0 0 0 0 0 0 0 0 -1 0 0 0 0 0 0 0 0 0 0 0 0 0 0zm0 0l0 0 0 0 0 0zm4 -3l0 1 0 0 0 0 0 0 0 0 -1 0 0 0 0 0 0 0 0 0 -1 0 0 0 0 0 0 0 0 0 0 1 0 0 -1 0 0 0 0 0 0 0 0 0 0 0 0 0 0 0 0 0 0 0 0 0 0 0 0 0 0 0 0 0 0 0 0 0 -1 1 -1 -1 1 0 0 0 0 0 0 0 0 0 0 0 0 -1 0 0 0 0 0 0 0 0 0 0 1 0 0 0 0 0 0 0 0 0 0 -1 1 0 0 0 0 0 0 0 0 0 1 0 0 0 0 0 0 0 0 0 1 0 0 0 0 0 0 0zm5 1l-1 0 0 0 0 1 0 0 0 0 0 0 0 0 0 0 0 -1 0 0 0 0 0 0 -1 0 0 0 0 0 0 0 0 0 0 0 0 0 -1 0 0 0 0 0 0 0 0 0 -1 0 0 0 0 0 0 0 0 0 0 0 0 0 -1 0 0 0 0 0 0 -1 0 0 0 0 1 0 0 0 0 0 0 0 0 0 0 0 1 0 0 0 0 0 0 0 0 0 1 0 0 0 0 0 0 0 0 0 0 0 1 0 0 0 0 0 0 0 0 0 0 0 0 1 1 0 0 0 0 0 0 0 0 0 0 0 0 0z"/>
   </g>
   <g>
    <path class="fil0" d="M149 51c0,-2 2,-3 4,-3 1,0 3,1 3,3l-7 0zm5 20l-6 -1 0 0 0 0 0 -1 0 -1 0 0 0 -1 0 -1 0 0 0 -1 0 -1 0 0 0 -1 0 -1 0 0 1 -1 0 0 0 -1 0 0 0 -1 0 -1 0 0 0 -1 0 0 0 -1 0 0 0 -1 0 0 0 -1 0 0 0 -1 0 -1 0 0 0 -1 7 0 0 1 0 0 0 1 0 1 0 0 0 1 0 1 0 0 0 1 0 1 0 0 0 1 0 0 0 1 0 1 -1 0 0 1 0 0 0 1 0 0 0 1 0 1 0 0 0 1 0 0 0 1 0 0 0 1 -1 1 0 0 0 1 0 1 0 0zm0 0c0,2 -1,3 -3,3 -2,0 -4,-2 -3,-4l6 1zm-3 37l-6 -3 1 -1 0 -1 1 -2 0 -1 1 -1 0 -1 0 -1 0 -1 1 -1 0 -1 0 -1 0 -1 0 -1 0 -1 0 -1 0 -1 0 -1 0 -1 0 -1 0 -1 -1 -1 0 -1 0 -2 0 -1 0 -1 0 -1 0 -1 0 -1 0 -1 0 -1 0 -1 0 -2 6 1 0 1 0 0 0 1 0 1 1 1 0 1 0 2 0 1 0 1 0 1 0 1 0 1 1 1 0 1 0 2 0 1 0 1 0 1 0 1 0 2 0 1 0 1 -1 2 0 1 0 1 -1 1 0 2 -1 1 0 1 -1 2 -1 1 0 1zm0 0c-1,2 -4,2 -5,1 -2,-1 -2,-3 -1,-4l6 3z"/>
   </g>
  </g>
 </g>
</svg>
