<?xml version="1.0" encoding="UTF-8"?>
<!DOCTYPE svg PUBLIC "-//W3C//DTD SVG 1.1//EN" "http://www.w3.org/Graphics/SVG/1.1/DTD/svg11.dtd">
<!-- Creator: CorelDRAW Home & Student X7 -->
<svg xmlns="http://www.w3.org/2000/svg" xml:space="preserve" width="190px" height="190px" version="1.1" style="shape-rendering:geometricPrecision; text-rendering:geometricPrecision; image-rendering:optimizeQuality; fill-rule:evenodd; clip-rule:evenodd"
viewBox="0 0 190 190"
 xmlns:xlink="http://www.w3.org/1999/xlink">
 <defs>
  <style type="text/css">
   <![CDATA[
    .fil1 {fill:#FFFEFE}
    .fil0 {fill:white}
   ]]>
  </style>
 </defs>
 <g id="Ebene_x0020_1">
  <metadata id="CorelCorpID_0Corel-Layer"/>
  <g id="_336696016">
   <g>
    <path class="fil0" d="M6 43c1,1 4,3 6,3 0,0 0,1 1,1 2,1 4,2 6,3 2,0 4,1 5,2 12,5 25,10 38,15 3,2 7,3 10,5 2,1 5,2 6,2 2,1 4,2 6,3 5,2 8,3 12,3 3,-1 7,-2 11,-4 7,-4 17,-8 26,-12 3,-1 7,-3 10,-4 1,-1 4,-2 7,-3 11,-5 29,-13 33,-15 1,-1 1,-1 2,-1 -2,-2 -5,-3 -7,-3l-1 -1 0 0 -6 -2 0 0c-4,-2 -10,-4 -16,-6 -5,-2 -9,-4 -13,-5l0 0 -32 -13 0 0c0,0 -1,0 -2,0 0,0 0,-1 -1,-1l0 0c-2,0 -4,-1 -6,-1 -2,-1 -3,0 -6,0 -4,1 -7,2 -11,4l0 0 -59 22 0 0c-2,1 -4,2 -6,2 -4,2 -9,4 -11,5l0 0 0 0 0 0c-1,0 -2,1 -2,1zm-4 -1c0,5 6,7 9,8 4,2 8,4 12,5 15,7 33,14 48,20 4,2 8,4 11,5 11,5 17,4 27,-1 9,-5 26,-11 35,-16 8,-3 35,-14 41,-18 3,-2 4,-3 4,-6 -2,-2 -8,-4 -11,-5l-5 -2c-7,-4 -22,-8 -30,-12l-31 -12c-1,-1 -2,-1 -4,-1 -4,-2 -8,-3 -14,-2 -4,1 -8,3 -12,4l-58 23c-5,1 -14,5 -18,7 -2,1 -3,1 -4,3z"/>
   </g>
   <path class="fil0" d="M2 105c-1,2 -1,17 0,19 0,3 2,4 4,5 2,2 10,5 13,7l62 25c4,2 9,5 16,4 5,-1 9,-3 14,-5 6,-3 20,-9 27,-12l13 -6c8,-3 19,-8 27,-12l8 -4c4,-3 3,-4 3,-14 0,-2 0,-3 0,-5l0 -3c0,-1 0,0 0,-1 0,-1 0,0 0,-1 0,3 -2,4 -4,6 -2,1 -3,2 -5,3 -10,4 -26,10 -36,15 -11,5 -24,10 -35,16 -4,2 -8,4 -12,4 -6,1 -10,-1 -14,-3 -15,-7 -70,-28 -78,-33 -1,-1 -3,-2 -3,-5z"/>
   <g>
    <path class="fil0" d="M13 72c0,0 -1,0 -1,0 -2,1 -4,2 -5,2 0,1 0,0 0,1 -1,0 -1,0 -1,0 1,1 3,2 5,3 1,0 1,1 2,1l0 0c6,3 13,6 21,9 5,2 10,4 14,6 5,2 10,4 15,6 8,3 15,6 21,9 2,1 4,2 6,2 2,1 4,1 6,1 2,-1 4,-1 6,-2 2,-1 4,-2 5,-2 9,-5 20,-9 29,-14 2,0 3,-1 7,-2 0,0 4,-2 8,-4 9,-4 19,-8 27,-12 1,0 2,-1 3,-1 1,-1 1,-1 2,-1l0 0 0 -1c1,0 1,0 2,-1 -1,0 -1,0 -1,0 -2,-1 -5,-2 -5,-3l-1 0 0 0c0,0 -1,0 -1,-1l-2 1c-1,1 -4,1 -6,1 -1,1 -3,1 -3,1l0 0 -26 12 0 0c-4,1 -7,2 -11,4 -7,3 -14,6 -20,9 -1,0 -1,0 -2,1 -9,4 -11,5 -21,1 -1,-1 -4,-2 -6,-3 -2,0 -4,-1 -6,-2l0 0 -43 -16 0 0c-2,-1 -5,-3 -7,-6 -2,-1 -4,-3 -6,-4 -1,0 0,2 -1,2 -1,1 -2,2 -3,2l0 1 -1 0zm0 -4c-1,0 -7,2 -8,3 -1,1 -2,2 -3,4 0,4 5,5 9,7 11,5 25,10 36,15 11,5 24,10 36,15 4,2 8,4 14,3 4,0 8,-2 12,-4 10,-5 25,-11 35,-16 11,-4 26,-10 36,-15 2,-1 4,-2 5,-3 2,-2 4,-2 4,-5 -1,-2 -8,-6 -9,-6 -1,-1 -2,-2 -3,-1l-3 1c-2,1 -8,0 -10,2l-26 11c-9,4 -22,9 -31,13 -9,5 -10,6 -19,2 -3,-1 -9,-3 -12,-4l-43 -17c-4,-1 -10,-8 -13,-9 -2,-1 -6,3 -7,4z"/>
   </g>
   <g>
    <path class="fil0" d="M15 100c0,0 -2,2 -4,3 -1,1 -2,1 -3,2 0,0 -1,0 -1,0l0 1 0 0 -1 0 0 0c0,0 1,0 1,1 0,0 0,0 0,0l0 0 0 0m9 -10c-1,0 -8,4 -9,4 -1,1 -2,1 -2,1 -2,1 -3,2 -3,3 0,3 2,4 3,5 8,5 63,26 78,33 4,2 8,4 14,3 4,0 8,-2 12,-4 11,-6 24,-11 35,-16 10,-5 26,-11 36,-15 2,-1 3,-2 5,-3 2,-2 4,-3 4,-6 -1,-1 -2,-2 -3,-2 -1,-1 -1,-1 -2,-1 0,0 -1,-1 -1,-1 -1,0 -4,-2 -4,-2 -2,-1 -6,-3 -8,-2 -21,10 -47,23 -68,33 -9,4 -9,4 -18,0 -16,-8 -32,-19 -49,-27l-18 -4c-1,-1 -1,0 -2,1zm-9 10l1 0 0 0c4,3 24,11 43,19 14,5 27,11 33,14 2,1 4,1 6,2 2,0 4,1 6,0 4,0 8,-2 11,-4l0 0c7,-3 15,-6 23,-10 4,-2 9,-4 13,-5 3,-2 8,-4 13,-6 8,-3 16,-7 22,-10l1 0 0 0c1,-1 3,-2 4,-3l0 0c1,0 1,0 2,-1 0,0 -1,0 -1,0 0,0 0,0 0,0l0 0c0,0 -1,0 -1,0 0,-1 0,-1 0,-1l0 0 -1 0 0 0c0,0 0,0 0,0 -1,0 -3,-1 -4,-2 0,0 0,0 1,0l0 0 -1 0 -1 -1c0,0 0,0 -1,0 -1,-1 -3,-2 -3,-2 -12,6 -24,12 -37,18 -11,5 -22,11 -31,15 -10,5 -11,5 -20,1 0,-1 2,0 -1,-1 -8,-4 -16,-8 -24,-12 -8,-5 -17,-10 -25,-14l-17 -4c0,0 -1,0 -1,0l-1 0 -1 0m164 0c0,0 1,0 0,0l0 0 0 0z"/>
   </g>
   <path class="fil1" d="M52 34c-5,0 -16,2 -18,7 -1,2 1,4 2,5 9,7 29,7 40,2 12,-7 -3,-16 -24,-14z"/>
   <g>
    <path class="fil0" d="M137 51c-1,0 0,0 0,-1l0 -19 -27 11c5,2 10,4 15,6l12 4c0,0 -1,-1 0,-1z"/>
    <path id="1" class="fil0" d="M137 51c0,0 0,0 0,0 0,0 0,0 0,-1l0 -19 -27 11c5,2 10,4 15,6l12 4c0,0 -1,-1 0,-1zm0 0c0,0 0,0 0,0zm-4 -4l0 -10 -13 5 1 0c2,1 5,2 5,2l0 0 7 3z"/>
   </g>
   <path class="fil1" d="M69 58l2 1c1,1 1,1 2,1 4,2 24,10 26,11l10 -14c0,-1 2,-4 3,-5l-43 6z"/>
   <path class="fil1" d="M89 23l-13 4c0,0 0,0 1,1 0,0 0,0 1,0l14 1c3,0 2,0 4,4 2,2 3,4 4,6l4 -9 15 -1c-1,-2 -10,-4 -12,-5l4 -8c-3,1 -12,4 -13,4 -3,-1 -9,-4 -13,-5 1,3 4,5 4,8z"/>
   <path class="fil0" d="M2 42c-1,2 0,15 0,18 0,5 2,6 7,8 3,2 7,3 11,5 4,2 7,3 11,4l42 18c4,2 7,3 10,5 9,4 15,3 24,-1 9,-5 22,-10 31,-14l31 -14c5,-2 10,-4 14,-6 4,-3 6,-3 6,-8l0 -17c0,0 0,0 0,-1 0,3 -1,4 -4,6 -6,4 -33,15 -41,18 -9,5 -26,11 -35,16 -10,5 -16,6 -27,1 -3,-1 -7,-3 -11,-5 -15,-6 -33,-13 -48,-20 -4,-1 -8,-3 -12,-5 -3,-1 -9,-3 -9,-8z"/>
   <path class="fil0" d="M2 75c-1,1 0,13 0,16 0,6 0,5 5,8 2,2 5,3 7,4l16 6c17,8 37,15 54,23 9,4 15,3 24,-2 21,-10 47,-20 69,-30 2,-1 4,-2 5,-2 0,-1 0,0 2,-2 5,-3 5,-3 5,-8l0 -12c0,-1 0,-2 0,-2l0 -2c0,3 -2,3 -4,5 -1,1 -3,2 -5,3 -10,5 -25,11 -36,15 -10,5 -25,11 -35,16 -4,2 -8,4 -12,4 -6,1 -10,-1 -14,-3 -12,-5 -25,-10 -36,-15 -11,-5 -25,-10 -36,-15 -4,-2 -9,-3 -9,-7z"/>
   <g>
    <path class="fil0" d="M139 49c1,0 6,-2 11,-4 3,-2 6,-3 8,-4l-20 -7 0 16c1,0 1,0 1,-1zm1 2c0,0 22,-9 23,-10l-27 -10 0 21c1,1 3,-1 4,-1z"/>
   </g>
  </g>
 </g>
</svg>
