<?xml version="1.0" encoding="UTF-8"?>
<!DOCTYPE svg PUBLIC "-//W3C//DTD SVG 1.1//EN" "http://www.w3.org/Graphics/SVG/1.1/DTD/svg11.dtd">
<!-- Creator: CorelDRAW Home & Student X7 -->
<svg xmlns="http://www.w3.org/2000/svg" xml:space="preserve" width="1123px" height="794px" version="1.1" style="shape-rendering:geometricPrecision; text-rendering:geometricPrecision; image-rendering:optimizeQuality; fill-rule:evenodd; clip-rule:evenodd"
viewBox="0 0 1123 794"
 xmlns:xlink="http://www.w3.org/1999/xlink">
 <defs>
  <style type="text/css">
   <![CDATA[
    .fil0 {fill:white}
   ]]>
  </style>
 </defs>
 <g id="Ebene_x0020_1">
  <metadata id="CorelCorpID_0Corel-Layer"/>
  <g>
   <path class="fil0" d="M522 476c4,0 10,-1 16,-2 6,-2 12,-3 15,-5 4,-2 11,-6 17,-10l0 0c3,-2 5,-3 5,-4l2 -3c-6,1 -15,2 -23,2 -7,0 -14,-2 -19,-5l-13 -8 9 -6c-1,0 -2,-1 -4,-2 -3,-1 -6,-2 -7,-4l-3 -2 0 -3 0 -3 -1 -7 6 -3c2,-1 -3,-2 -3,-5 1,-2 1,-4 1,-5l0 0c0,-3 1,-6 1,-9 1,-2 1,-5 1,-8l0 0 18 -101 1 -7 0 0c0,-2 1,-3 1,-3l0 0c0,-1 0,-1 0,-2l0 0 0 -1 3 -16 0 0 3 -13 0 0 2 -16c1,-5 2,-11 3,-17 2,-7 3,-13 5,-19 2,-5 1,-4 1,-4 2,-5 3,-9 4,-12l1 -4c1,-3 2,-6 3,-8 -2,-2 -11,-6 -20,-10 -10,-4 -19,-8 -20,-8l-7 2 -3 -7c-1,-2 -6,0 -10,-1 -1,-1 -2,-1 -3,-1l0 0c-2,-1 -4,-2 -7,-3 -4,-1 -8,-2 -11,-4 -3,-1 -14,-3 -24,-5 -6,-1 -11,-2 -12,-2l-8 2 -3 -8c-1,-3 -2,4 -4,4 -2,0 -4,0 -5,0 -10,0 -18,-1 -26,-2 -8,0 -16,-1 -27,-3 -6,-1 -8,-1 -11,-1 -15,-3 -19,-3 -39,-3 -7,0 -11,-1 -14,-1 1,0 1,0 0,1l0 0 0 0 0 0 0 0 0 0c0,0 0,0 0,0l0 0 0 1 0 0c-1,1 -2,2 -2,3 0,1 0,0 -1,0l0 0 0 0 1 7 -6 3c-1,0 1,3 -1,7 -2,5 -3,10 -3,10l1 7 -4 2c0,1 0,1 0,1l1 5 -4 4c0,0 -3,18 -7,39 -4,21 -7,45 -8,52 -1,6 -2,13 -2,20 0,5 -1,11 -1,16 -3,18 -2,37 -1,55 0,6 1,11 1,17 0,5 1,30 3,49 1,11 -1,16 0,18l3 3 -1 4c0,4 0,9 1,13 0,6 1,11 0,16l0 4 -2 1 5 0 0 10 0 5 0 2 -1 2c-2,5 -7,9 -14,13 -8,4 -17,8 -22,9 -4,1 -7,2 -10,2 4,2 8,3 13,4 9,3 19,3 31,3l12 -1 -2 12c-1,3 -2,6 -3,8 -1,2 -1,3 -2,3 -1,3 -3,11 -5,18 -1,6 -2,12 -2,13l-1 6 -3 1 1 0c1,0 1,0 1,0 -1,4 -1,8 -1,9l2 7c1,1 2,1 2,1 1,-2 2,-4 4,-6 2,-4 4,-7 8,-12l4 -4 6 1c8,2 9,6 12,14l0 0c0,0 0,1 1,4 1,2 1,4 2,6 1,2 2,4 2,5l1 1 0 0c2,5 7,17 9,24l1 2 0 0 2 6 2 3 0 1 1 1 2 5 6 12c1,2 3,5 5,9 0,1 0,1 0,2l29 0c1,0 4,0 6,0 2,0 5,0 6,0 1,0 2,0 4,-1 2,0 4,0 6,0l57 -7 0 0 5 -1 0 0c2,-1 1,0 1,-1 1,0 2,0 13,-2l0 0 15 -4 0 0 5 -1 6 -1 0 0 1 -1c4,0 8,-2 12,-3l1 0 5 -3 1 0 22 -11 6 -3 -2 -4 0 0 -4 -7 0 0 -3 -5 0 0c-4,-6 -10,-19 -14,-31 -4,-13 -7,-27 -6,-31l1 -3 3 -2 2 -1 3 -2 3 0c0,0 5,-2 10,-4 10,-5 20,-12 24,-14 0,-1 2,-2 3,-3 4,-3 8,-6 12,-10 1,-2 4,-10 6,-15 1,-2 2,-3 2,-3 0,-1 1,-6 1,-11 1,-6 1,-12 1,-15 0,-1 0,-3 -1,-4l-2 18c0,3 -2,7 -4,9 0,0 0,1 0,1 -2,3 -3,5 -5,7 0,1 0,1 -1,1 -3,5 -8,8 -14,11 -6,4 -13,6 -19,7 -1,0 -3,1 -6,1 -4,0 -4,-5 -6,-2l-3 4 -4 0 -4 0 -9 0 -1 -9 -1 -27 -1 -9 10 -1zm0 10c11,0 27,-5 35,-9 7,-3 24,-12 26,-18l-2 23c0,1 -3,5 -4,7 -1,3 -2,4 -4,6 -6,8 -19,13 -28,15 -2,0 -17,2 -17,2l-4 0 -2 -26zm-221 -370c-2,2 -10,24 -9,28 -3,1 -4,7 -3,10 -4,4 -16,82 -19,97 -1,11 -1,24 -3,36 -3,24 0,49 0,74 1,7 5,70 6,72 -2,9 2,20 1,29l-16 14c5,3 12,2 19,2l0 5c-3,6 -23,15 -31,17 -7,2 -14,2 -21,2 -5,0 -20,-2 -20,-2 5,3 10,8 15,12 20,12 39,16 63,15 0,3 -2,7 -4,10 -1,5 -8,29 -8,33 -1,1 -2,16 -2,19 -2,0 -2,3 -2,6 0,9 3,6 7,8 11,2 14,6 15,2 4,-11 5,-13 12,-22 4,1 4,4 7,12 1,4 3,8 5,12 1,4 9,22 9,24l1 3 3 7 2 3 2 6 7 12c2,4 5,12 6,16l37 1c3,-1 8,0 12,-1 3,0 5,0 10,-1l57 -7 6 -1c3,-1 -3,0 14,-3l15 -3 5 -1 6 -2c6,-1 10,-3 15,-5l7 -3 22 -10 13 -8 0 -3 -5 -9 -4 -7 -3 -6c-4,-3 -21,-48 -19,-54l2 -1c6,1 35,-16 40,-21 6,-4 12,-8 17,-14 3,-4 8,-16 9,-21 2,-4 4,-24 3,-30 0,-6 -5,-25 -5,-28l4 -12c-4,2 -8,9 -27,15 -9,2 -26,3 -34,-2l9 -5c3,-1 5,-3 5,-5 0,0 -13,-3 -15,-4 -2,0 -12,-3 -13,-4l0 -3c3,-2 3,-14 3,-18 1,-6 2,-10 3,-17l17 -101c2,0 1,-3 1,-5 1,-4 1,-4 2,-7l2 -16 3 -13 3 -16c1,-11 4,-25 7,-35 2,-5 3,-11 5,-16 2,-5 5,-13 5,-17l-1 -2c-3,-5 -45,-24 -51,-23 -1,-2 -14,-6 -18,-7 -6,-2 -12,-4 -18,-7 -5,-1 -38,-8 -41,-7 -2,-4 -14,-2 -18,-2 -20,-1 -31,-2 -51,-5 -26,-4 -26,-5 -52,-4 -20,0 -15,-6 -22,4 -2,3 -4,8 -4,10zm11 -6l0 0 0 0c0,0 0,0 0,0 0,0 0,0 0,0zm0 0l0 0 0 0m0 0l0 0 0 0m0 0c0,0 1,-1 0,-1l0 1m-2 5c0,0 0,0 0,0l0 0zm-33 463l-2 1c-3,1 2,0 3,-1l-1 0z"/>
  </g>
  <path class="fil0" d="M369 301c1,3 0,8 -2,9 0,7 -12,18 -18,21 -10,5 -20,5 -30,1 -20,-10 -25,-32 -24,-51 0,-4 2,-14 5,-16 1,-7 11,-17 17,-20 20,-10 39,0 49,18 2,4 9,27 5,29 0,2 1,9 -2,9zm-21 -26c-2,-4 -1,0 -2,-3 -3,-1 -7,-3 -11,-4l-2 0c-9,0 -9,3 -15,4 -1,2 -4,4 -6,6 0,1 -1,3 -2,4 -2,3 0,2 -2,3 1,7 -4,10 2,19 3,4 7,8 12,10 16,5 28,-15 29,-15l2 -6c0,-6 1,-16 -5,-18zm-38 -34l-6 3c-5,9 -25,13 -23,62 1,14 11,31 23,40 4,3 11,5 14,8 -7,3 -22,-9 -26,-13 -9,-10 -12,-23 -15,-24 0,8 3,10 4,16l7 9c2,1 13,11 13,12 4,0 8,3 14,4l17 0 3 -1 4 0c4,-4 7,1 20,-13 6,-7 10,-12 14,-20 5,-14 7,-30 3,-45 -1,-4 -4,-10 -4,-13l-7 -10 -13 -13 -9 -5 -8 -1 -14 0 -11 4z"/>
  <path class="fil0" d="M283 454c-3,1 -5,7 -8,9l-16 13c5,3 13,3 19,2l4 0c-1,2 -3,5 -4,6 -3,6 -23,14 -31,16 -6,2 -14,3 -21,3 -5,0 -20,-3 -20,-3 5,3 10,9 15,12 20,13 39,17 63,16l4 0 3 0 26 -7 15 -7c4,-3 13,-6 18,-10 2,-2 15,-12 16,-12 1,-3 0,0 2,-3 3,-2 4,-4 7,-5 1,6 -3,13 -7,15l-3 4c6,2 11,-2 16,-3 5,-2 21,-13 21,-13 1,-2 8,-11 10,-14 3,-5 4,-10 7,-14 5,5 7,17 25,28 9,6 35,11 45,5 -3,-2 -9,-6 -10,-10 2,0 8,2 11,2 3,1 6,1 11,1 7,1 14,2 22,1l1 0c10,0 26,-4 35,-8 6,-4 23,-13 26,-18 1,-3 7,-6 6,-9 5,-3 5,-9 7,-10l4 -12c-4,1 -8,8 -27,14 -9,3 -26,3 -34,-2l9 -5c3,-1 5,-2 5,-5 0,0 -13,-3 -15,-3 -2,-1 -12,-4 -13,-5l-8 -3c-1,-2 -6,-4 -8,-5 -2,-1 -7,-4 -9,-4 1,-4 4,-4 11,-4 8,-1 12,2 13,-2l-5 -2 -5 -5 -6 -3 -8 -4c-2,-1 -2,-1 -4,-2 -3,-1 -1,1 -3,-2 -3,1 -12,-4 -17,-4 -3,0 -5,0 -7,-2 -4,0 -10,0 -14,0 -3,1 -8,3 -11,4l-6 3c-6,2 -17,12 -19,18l-2 0c-6,-11 -7,-18 -19,-29 -2,-2 -7,-5 -8,-7l-10 -5c-6,0 -12,-4 -19,-4 -6,0 -19,2 -22,1 -1,2 -3,1 -6,2 -1,1 -8,3 -9,3 -1,3 0,1 -3,3 -3,1 -2,1 -4,2 -3,2 -5,4 -7,6 -2,1 -5,5 -7,6l-12 15 -9 13 -10 21c5,0 9,-6 13,-6 1,-2 2,-2 4,-3 2,-1 3,-1 5,-2 2,-1 5,-1 7,-1 2,2 0,0 0,2 -1,2 -2,3 -2,5l-2 1c-1,4 -5,7 -6,11l-2 1 -8 13z"/>
  <path class="fil0" d="M312 126c0,0 12,20 14,22 3,5 14,17 16,20l11 11 6 4c2,0 8,3 11,4 5,1 9,1 13,2l43 2 28 1 28 0 0 11 -3 40 1 0c1,-5 5,-14 7,-20 1,-3 2,-6 3,-10 1,-2 1,-9 4,-10 -1,4 -2,2 -1,7l5 0c0,-2 2,-7 3,-9 1,-3 2,-7 3,-10 14,0 27,-10 38,-15 11,-6 25,-10 36,-17l-1 -3c-3,-4 -45,-23 -51,-22 -1,-2 -15,-6 -18,-7 -6,-2 -13,-4 -18,-7 -5,-1 -38,-8 -42,-7 -1,-4 -14,-2 -17,-2 -20,-1 -31,-2 -52,-5 -25,-4 -26,-5 -52,-5 -19,1 -14,-5 -22,5 -1,3 -4,8 -3,10 0,4 -2,6 2,7 3,1 1,0 4,2 2,0 2,1 4,1zm255 32c-3,0 -27,11 -31,13 -6,3 -23,14 -30,13l-8 2 -8 -8c3,-2 10,-4 13,-6 19,-10 25,-26 33,-28 2,1 12,5 15,7 3,1 5,3 8,3 2,1 7,1 8,4zm-37 -16c1,4 -6,9 -8,11 -7,7 -10,12 -21,18 -2,1 -13,5 -13,5 -3,-2 -12,-11 -15,-12 0,6 4,11 3,14 -7,3 -48,1 -51,-3 -3,0 -25,-5 -26,-7 -4,0 -15,-3 -18,-6l-6 -2c-1,-2 -5,-3 -7,-5 -3,-1 -5,-3 -7,-6 -3,-3 -8,-13 -4,-17 1,-3 2,-5 5,-6 0,-2 4,-4 6,-4 1,-2 6,-4 9,-4 2,-2 11,-4 14,-4 3,0 14,1 17,2 9,1 23,3 33,3 7,0 14,3 21,4 3,1 7,2 10,2 7,2 3,2 8,5 4,5 9,7 8,15 -3,7 -38,18 -50,19 -4,0 -19,1 -21,-2 -9,0 -24,-20 -17,-26 4,-10 29,-14 40,-7 3,2 10,10 9,16 -2,6 -14,7 -16,-1 3,-3 4,-1 4,-4 -2,-2 -8,-2 -10,0 -3,12 16,15 22,12 11,-6 1,-19 -5,-24 -12,-10 -50,-6 -49,14l3 8c1,0 6,7 10,10 3,2 8,5 13,6 12,1 13,1 25,-1 8,-2 16,-4 23,-6 6,-3 15,-6 20,-9 6,-6 2,-16 -4,-18 1,-3 -1,-3 10,0 7,2 26,8 31,9l4 1zm-155 18c0,3 -1,1 2,3 0,0 3,1 3,1 2,1 4,2 7,3 6,2 13,5 20,7 12,3 33,7 46,8 7,0 20,-2 25,-1l1 4 -22 1c-8,1 -31,-2 -39,-2 -7,-1 -37,0 -40,-3 -12,1 -28,-17 -35,-26 -6,-8 -24,-32 -23,-40 -2,-1 -1,-1 -1,-4l0 -3 12 2 6 0 44 3c-5,1 -9,2 -13,5 -4,2 -9,7 -11,7 -1,6 -5,4 -4,16l0 1c3,4 4,7 8,10 2,2 8,5 9,7l5 1z"/>
  <path class="fil0" d="M491 283c10,1 21,16 22,26 1,3 4,15 0,16 1,7 -6,16 -11,20 -13,10 -31,1 -38,-15 -5,-10 -4,-15 -3,-25 1,-4 0,-3 2,-6 2,-8 6,-9 9,-13 -5,0 -11,11 -13,15 -3,8 -4,18 -3,27 4,17 7,26 20,38 0,0 3,2 2,2 4,1 6,3 9,4 3,1 7,2 10,3l10 0 3 0c2,-2 4,-2 7,-3 2,-1 3,-3 5,-4 -1,-5 -4,1 -8,2 -7,6 -33,1 -34,-7 3,-1 9,5 21,2 8,-3 9,-5 15,-10 1,-2 3,-5 5,-8 1,-3 3,-5 3,-9 1,-10 2,-12 0,-22 0,-8 -8,-21 -13,-26 -3,-3 -7,-6 -11,-8 -8,-3 -9,-1 -17,-2 1,2 4,-1 8,3zm11 26c-2,-4 -4,-5 -7,-8l-2 0c-3,-5 -12,1 -15,2 0,2 -1,2 -3,5 -1,3 0,6 0,9 1,6 6,12 12,13 4,1 8,0 11,-2 5,-3 4,-5 6,-7 0,-3 0,-9 -2,-12z"/>
 </g>
</svg>
