<?xml version="1.0" encoding="UTF-8"?>
<!DOCTYPE svg PUBLIC "-//W3C//DTD SVG 1.1//EN" "http://www.w3.org/Graphics/SVG/1.1/DTD/svg11.dtd">
<!-- Creator: CorelDRAW Home & Student X7 -->
<svg xmlns="http://www.w3.org/2000/svg" xml:space="preserve" width="190px" height="190px" version="1.1" style="shape-rendering:geometricPrecision; text-rendering:geometricPrecision; image-rendering:optimizeQuality; fill-rule:evenodd; clip-rule:evenodd"
viewBox="0 0 190 190"
 xmlns:xlink="http://www.w3.org/1999/xlink">
 <defs>
  <style type="text/css">
   <![CDATA[
    .fil0 {fill:white}
   ]]>
  </style>
 </defs>
 <g id="Ebene_x0020_1">
  <metadata id="CorelCorpID_0Corel-Layer"/>
  <g id="rabbitmq.svg">
   <g>
    <g>
     <path class="fil0" d="M182 82l-60 0c-3,0 -6,-1 -8,-3 -2,-2 -3,-5 -3,-8l0 -62c0,-1 0,-2 -1,-2 0,-1 -1,-1 -1,-1l-22 0c0,0 -1,0 -1,1 -1,0 -1,1 -1,2l0 61c0,4 -2,6 -4,8 -2,3 -5,4 -8,4l-19 0 0 0 0 0 0 0c-3,0 -6,-1 -8,-3 -2,-2 -4,-5 -4,-8l0 -1 0 0 0 0 1 -61 -1 0 0 0c0,-1 0,-2 0,-2 -1,-1 -1,-1 -2,-1l0 0 0 0 -21 0c-1,0 -2,0 -2,1 -1,0 -1,1 -1,2l0 173c0,1 0,1 1,1 0,1 0,1 1,1l164 0c0,0 1,0 1,-1 0,0 0,0 0,-1l0 -98c0,-1 0,-1 0,-2 0,0 -1,0 -1,0zm0 -6l-60 0c-3,0 -5,-2 -5,-5l0 -62c0,-5 -4,-8 -8,-8l-22 0c-4,0 -8,3 -8,8l0 61c0,4 -2,6 -6,6l-19 0c-3,0 -6,-2 -6,-6l0 -61c0,-5 -4,-8 -8,-8l-21 0c-5,0 -9,3 -9,8l0 173c0,4 4,8 8,8l164 0c4,0 7,-4 7,-8l0 -98c0,-5 -3,-8 -7,-8l0 0zm-28 65c0,6 -4,10 -10,10l-17 0c-5,0 -9,-4 -9,-10l0 -17c0,-5 4,-9 9,-9l17 0c6,0 10,4 10,9l0 17 0 0zm6 0c0,4 -2,8 -5,11l0 0c-3,3 -7,5 -11,5l-17 0c-4,0 -8,-2 -10,-5 -3,-3 -5,-7 -5,-11l0 -17c0,-4 2,-8 5,-10l0 0c2,-3 6,-5 10,-5l17 0c4,0 8,2 11,5 3,2 5,6 5,10l0 17z"/>
    </g>
   </g>
  </g>
 </g>
</svg>
